<svg id="svg" version="1.1" xmlns="http://www.w3.org/2000/svg" xmlns:xlink="http://www.w3.org/1999/xlink" width="400" height="494.68599033816423" viewBox="0, 0, 400,494.68599033816423"><g id="svgg"><path id="path0" d="M49.191 67.500 C 49.186 70.085,49.084 74.720,48.963 77.800 C 48.540 88.594,48.124 106.203,48.285 106.500 C 48.374 106.665,68.756 106.800,93.577 106.800 L 138.706 106.800 138.965 91.500 C 139.107 83.085,139.263 73.185,139.311 69.500 L 139.400 62.799 94.300 62.800 L 49.200 62.800 49.191 67.500 M260.001 73.100 C 260.001 78.765,260.120 88.665,260.265 95.100 L 260.529 106.800 279.225 106.800 L 297.921 106.800 298.143 111.300 C 298.369 115.869,299.223 151.488,299.208 155.700 L 299.200 158.000 325.733 158.000 C 340.327 158.000,352.342 157.925,352.433 157.834 C 352.525 157.743,352.477 153.828,352.327 149.134 C 352.176 144.440,351.775 129.890,351.435 116.800 C 351.095 103.710,350.727 91.290,350.616 89.200 C 350.505 87.110,350.311 80.810,350.185 75.200 C 350.058 69.590,349.861 64.505,349.746 63.900 L 349.536 62.800 304.768 62.800 L 260.000 62.800 260.001 73.100 M48.226 113.159 C 47.961 113.587,47.777 118.282,46.994 144.600 C 45.687 188.596,44.912 228.410,45.590 216.800 C 45.764 213.830,45.927 211.175,45.953 210.900 C 45.990 210.501,77.007 210.400,199.575 210.400 L 353.151 210.400 353.392 212.100 C 353.524 213.035,353.791 217.670,353.984 222.400 L 354.336 231.000 354.160 219.800 C 353.915 204.206,353.184 176.017,352.865 169.895 L 352.600 164.791 260.641 164.795 L 168.681 164.800 168.841 139.100 L 169.000 113.400 151.800 113.157 C 123.838 112.762,48.470 112.763,48.226 113.159 M245.236 113.098 L 229.872 113.210 230.136 122.870 C 230.281 128.183,230.400 138.260,230.400 145.265 L 230.400 158.000 260.962 158.000 L 291.524 158.000 291.323 147.700 C 291.213 142.035,291.005 131.910,290.861 125.200 L 290.600 113.000 275.600 112.993 C 267.350 112.989,253.686 113.036,245.236 113.098 M137.112 216.700 C 136.588 217.299,136.541 218.386,136.785 224.200 L 137.070 231.000 137.135 223.900 L 137.200 216.800 153.000 216.800 C 163.267 216.800,168.800 216.660,168.800 216.400 C 168.800 215.590,137.826 215.883,137.112 216.700 M230.193 216.700 C 229.937 217.150,229.874 222.404,230.018 231.400 L 230.242 245.400 230.321 231.100 L 230.400 216.800 246.000 216.800 C 256.133 216.800,261.600 216.660,261.600 216.400 C 261.600 215.587,230.659 215.883,230.193 216.700 M169.340 220.000 C 169.340 221.870,169.409 222.635,169.493 221.700 C 169.577 220.765,169.577 219.235,169.493 218.300 C 169.409 217.365,169.340 218.130,169.340 220.000 M262.144 220.400 C 262.144 222.490,262.212 223.345,262.294 222.300 C 262.376 221.255,262.376 219.545,262.294 218.500 C 262.212 217.455,262.144 218.310,262.144 220.400 " stroke="none" fill="#53ce58" fill-rule="evenodd"></path><path id="path1" d="M259.767 62.942 C 259.652 63.240,259.623 64.635,259.702 66.042 L 259.846 68.600 259.923 65.733 C 259.973 63.877,260.176 62.796,260.500 62.665 C 260.892 62.507,260.889 62.456,260.487 62.432 C 260.206 62.414,259.881 62.644,259.767 62.942 M139.320 65.600 C 139.320 66.810,139.395 67.305,139.487 66.700 C 139.578 66.095,139.578 65.105,139.487 64.500 C 139.395 63.895,139.320 64.390,139.320 65.600 M350.140 70.800 C 350.140 72.670,350.209 73.435,350.293 72.500 C 350.377 71.565,350.377 70.035,350.293 69.100 C 350.209 68.165,350.140 68.930,350.140 70.800 M139.348 72.000 C 139.348 74.310,139.414 75.255,139.495 74.100 C 139.576 72.945,139.576 71.055,139.495 69.900 C 139.414 68.745,139.348 69.690,139.348 72.000 M48.914 72.200 C 48.917 73.300,48.995 73.703,49.087 73.095 C 49.179 72.486,49.177 71.586,49.082 71.095 C 48.987 70.603,48.911 71.100,48.914 72.200 M350.537 85.800 C 350.539 87.560,350.609 88.230,350.693 87.289 C 350.778 86.349,350.777 84.909,350.691 84.089 C 350.605 83.270,350.536 84.040,350.537 85.800 M48.514 87.400 C 48.517 88.500,48.595 88.903,48.687 88.295 C 48.779 87.686,48.777 86.786,48.682 86.295 C 48.587 85.803,48.511 86.300,48.514 87.400 M260.148 95.200 C 260.148 97.510,260.214 98.455,260.295 97.300 C 260.376 96.145,260.376 94.255,260.295 93.100 C 260.214 91.945,260.148 92.890,260.148 95.200 M138.967 99.200 C 138.967 103.490,139.026 105.245,139.098 103.100 C 139.170 100.955,139.170 97.445,139.098 95.300 C 139.026 93.155,138.967 94.910,138.967 99.200 M350.893 96.400 C 350.893 97.170,350.975 97.485,351.076 97.100 C 351.176 96.715,351.176 96.085,351.076 95.700 C 350.975 95.315,350.893 95.630,350.893 96.400 M350.914 99.800 C 350.917 100.900,350.995 101.303,351.087 100.695 C 351.179 100.086,351.177 99.186,351.082 98.695 C 350.987 98.203,350.911 98.700,350.914 99.800 M48.137 101.400 C 48.139 103.160,48.209 103.830,48.293 102.889 C 48.378 101.949,48.377 100.509,48.291 99.689 C 48.205 98.870,48.136 99.640,48.137 101.400 M351.337 113.800 C 351.339 115.560,351.409 116.230,351.493 115.289 C 351.578 114.349,351.577 112.909,351.491 112.089 C 351.405 111.270,351.336 112.040,351.337 113.800 M47.720 115.200 C 47.720 116.410,47.795 116.905,47.887 116.300 C 47.978 115.695,47.978 114.705,47.887 114.100 C 47.795 113.495,47.720 113.990,47.720 115.200 M47.353 127.800 C 47.353 130.440,47.418 131.468,47.497 130.084 C 47.575 128.701,47.574 126.541,47.495 125.284 C 47.416 124.028,47.352 125.160,47.353 127.800 M351.751 127.600 C 351.751 130.130,351.816 131.165,351.896 129.900 C 351.975 128.635,351.975 126.565,351.896 125.300 C 351.816 124.035,351.751 125.070,351.751 127.600 M230.169 134.000 C 230.169 138.510,230.227 140.355,230.298 138.100 C 230.370 135.845,230.370 132.155,230.298 129.900 C 230.227 127.645,230.169 129.490,230.169 134.000 M168.982 141.800 C 168.982 150.380,169.035 153.833,169.100 149.474 C 169.164 145.114,169.164 138.094,169.099 133.874 C 169.035 129.653,168.982 133.220,168.982 141.800 M46.942 141.400 C 46.941 143.380,47.008 144.240,47.092 143.312 C 47.176 142.384,47.177 140.764,47.095 139.712 C 47.012 138.660,46.943 139.420,46.942 141.400 M352.140 141.600 C 352.140 143.470,352.209 144.235,352.293 143.300 C 352.377 142.365,352.377 140.835,352.293 139.900 C 352.209 138.965,352.140 139.730,352.140 141.600 M298.093 143.200 C 298.093 143.970,298.175 144.285,298.276 143.900 C 298.376 143.515,298.376 142.885,298.276 142.500 C 298.175 142.115,298.093 142.430,298.093 143.200 M230.153 147.000 C 230.153 149.640,230.218 150.668,230.297 149.284 C 230.375 147.901,230.374 145.741,230.295 144.484 C 230.216 143.228,230.152 144.360,230.153 147.000 M291.556 149.900 C 291.531 153.365,291.544 156.605,291.584 157.100 L 291.657 158.000 261.029 158.000 L 230.400 158.000 230.400 161.205 L 230.400 164.410 199.600 164.305 C 182.660 164.247,168.800 164.335,168.800 164.500 C 168.800 164.665,210.155 164.798,260.700 164.795 L 352.600 164.791 352.823 168.695 L 353.045 172.600 353.074 169.200 C 353.100 166.026,352.615 156.915,352.467 157.800 C 352.423 158.063,343.320 158.164,325.848 158.094 L 299.296 157.989 299.005 151.694 C 298.663 144.298,298.860 144.862,296.714 145.161 C 293.922 145.550,292.400 145.272,292.400 144.375 C 292.400 143.949,292.220 143.600,292.000 143.600 C 291.752 143.600,291.583 145.996,291.556 149.900 M352.540 154.000 C 352.540 155.870,352.609 156.635,352.693 155.700 C 352.777 154.765,352.777 153.235,352.693 152.300 C 352.609 151.365,352.540 152.130,352.540 154.000 M46.537 154.200 C 46.539 155.960,46.609 156.630,46.693 155.689 C 46.778 154.749,46.777 153.309,46.691 152.489 C 46.605 151.670,46.536 152.440,46.537 154.200 M46.140 169.600 C 46.140 171.470,46.209 172.235,46.293 171.300 C 46.377 170.365,46.377 168.835,46.293 167.900 C 46.209 166.965,46.140 167.730,46.140 169.600 M353.340 181.600 C 353.340 183.470,353.409 184.235,353.493 183.300 C 353.577 182.365,353.577 180.835,353.493 179.900 C 353.409 178.965,353.340 179.730,353.340 181.600 M45.754 183.600 C 45.754 186.350,45.818 187.475,45.896 186.100 C 45.974 184.725,45.974 182.475,45.896 181.100 C 45.818 179.725,45.754 180.850,45.754 183.600 M353.753 195.800 C 353.753 198.440,353.818 199.468,353.897 198.084 C 353.975 196.701,353.974 194.541,353.895 193.284 C 353.816 192.028,353.752 193.160,353.753 195.800 M44.870 210.900 C 44.606 220.195,44.276 231.355,44.137 235.700 L 43.884 243.600 63.155 243.600 C 78.205 243.600,82.466 243.710,82.612 244.100 C 82.715 244.375,82.664 250.403,82.499 257.495 L 82.200 270.390 109.338 270.495 C 124.264 270.553,136.567 270.454,136.678 270.275 C 137.107 269.579,137.261 235.697,136.875 226.800 C 136.512 218.443,136.537 217.322,137.095 216.700 C 137.825 215.887,168.800 215.589,168.800 216.395 C 168.800 216.647,163.237 216.830,153.500 216.900 L 138.200 217.010 153.495 217.105 L 168.789 217.200 168.695 243.900 L 168.600 270.600 199.700 270.702 L 230.800 270.805 230.717 252.302 C 230.666 241.004,230.543 236.058,230.400 239.600 C 230.205 244.449,230.140 243.318,230.003 232.700 C 229.913 225.715,229.831 219.325,229.820 218.500 C 229.803 217.232,229.924 217.014,230.600 217.088 C 231.040 217.137,231.175 217.077,230.900 216.955 C 229.129 216.170,231.819 216.000,246.018 216.000 C 258.280 216.000,261.621 216.107,261.570 216.500 C 261.534 216.775,261.560 218.350,261.626 220.000 L 261.747 223.000 262.011 220.000 C 262.156 218.350,262.191 220.600,262.089 225.000 C 261.904 232.905,262.569 295.542,263.045 315.100 L 263.290 325.200 310.494 325.200 L 357.697 325.200 357.442 318.100 C 356.998 305.755,356.800 298.811,356.204 274.600 C 355.884 261.620,355.529 249.110,355.416 246.800 C 355.303 244.490,355.098 238.100,354.961 232.600 C 354.824 227.100,354.569 218.910,354.394 214.400 C 354.097 206.760,354.084 207.046,354.201 218.600 L 354.326 231.000 353.980 222.400 C 353.789 217.670,353.524 213.035,353.392 212.100 L 353.151 210.400 199.575 210.400 C 77.007 210.400,45.990 210.501,45.953 210.900 C 45.927 211.175,45.764 213.830,45.592 216.800 C 45.392 220.230,45.349 217.057,45.474 208.100 C 45.581 200.345,45.598 194.000,45.510 194.000 C 45.422 194.000,45.134 201.605,44.870 210.900 M137.276 223.700 C 137.353 230.737,137.508 229.922,137.696 221.499 C 137.753 218.914,137.665 216.799,137.500 216.799 C 137.335 216.800,137.234 219.905,137.276 223.700 M169.493 221.700 C 169.409 222.635,169.340 221.870,169.340 220.000 C 169.340 218.130,169.409 217.365,169.493 218.300 C 169.577 219.235,169.577 220.765,169.493 221.700 M238.926 217.100 C 243.066 217.165,249.726 217.165,253.726 217.099 C 257.727 217.034,254.340 216.981,246.200 216.981 C 238.060 216.981,234.787 217.034,238.926 217.100 M43.873 250.700 C 43.777 250.865,43.580 255.770,43.437 261.600 C 43.293 267.430,43.090 274.630,42.986 277.600 C 42.882 280.570,42.621 288.940,42.406 296.200 C 42.192 303.460,41.907 313.000,41.773 317.400 L 41.530 325.400 88.765 325.297 L 136.000 325.193 136.000 317.655 C 136.000 313.509,136.116 309.012,136.257 307.661 L 136.513 305.205 104.957 305.102 L 73.400 305.000 73.410 301.200 C 73.424 296.224,74.330 262.962,74.645 255.900 L 74.890 250.400 59.469 250.400 C 50.987 250.400,43.969 250.535,43.873 250.700 M81.915 285.600 C 81.869 290.000,81.824 294.503,81.815 295.606 L 81.800 297.611 108.961 297.611 C 123.899 297.611,136.160 297.564,136.207 297.506 C 136.253 297.448,136.414 292.945,136.563 287.500 L 136.835 277.600 109.418 277.600 L 82.000 277.600 81.915 285.600 " stroke="none" fill="#249025" fill-rule="evenodd"></path><path id="path2" d="M72.300 62.700 C 84.455 62.759,104.345 62.759,116.500 62.700 C 128.655 62.641,118.710 62.593,94.400 62.593 C 70.090 62.593,60.145 62.641,72.300 62.700 M259.365 62.948 C 259.249 63.249,259.213 64.464,259.284 65.648 L 259.413 67.800 259.607 65.099 C 259.801 62.381,259.752 61.939,259.365 62.948 M282.931 62.700 C 295.213 62.759,315.193 62.759,327.331 62.700 C 339.469 62.641,329.420 62.593,305.000 62.593 C 280.580 62.593,270.649 62.641,282.931 62.700 M349.995 65.118 L 350.190 67.800 350.317 65.442 C 350.386 64.145,350.299 62.938,350.122 62.760 C 349.945 62.582,349.888 63.643,349.995 65.118 M48.937 67.400 C 48.939 69.160,49.009 69.830,49.093 68.889 C 49.178 67.949,49.177 66.509,49.091 65.689 C 49.005 64.870,48.936 65.640,48.937 67.400 M259.740 71.600 C 259.740 73.470,259.809 74.235,259.893 73.300 C 259.977 72.365,259.977 70.835,259.893 69.900 C 259.809 68.965,259.740 69.730,259.740 71.600 M259.769 83.400 C 259.770 88.020,259.828 89.855,259.899 87.478 C 259.970 85.101,259.969 81.321,259.898 79.078 C 259.827 76.835,259.769 78.780,259.769 83.400 M139.350 80.200 C 139.351 82.620,139.416 83.558,139.496 82.285 C 139.576 81.012,139.575 79.032,139.494 77.885 C 139.414 76.738,139.349 77.780,139.350 80.200 M350.540 79.600 C 350.540 81.470,350.609 82.235,350.693 81.300 C 350.777 80.365,350.777 78.835,350.693 77.900 C 350.609 76.965,350.540 77.730,350.540 79.600 M48.537 82.600 C 48.539 84.360,48.609 85.030,48.693 84.089 C 48.778 83.149,48.777 81.709,48.691 80.889 C 48.605 80.070,48.536 80.840,48.537 82.600 M139.340 88.000 C 139.340 89.870,139.409 90.635,139.493 89.700 C 139.577 88.765,139.577 87.235,139.493 86.300 C 139.409 85.365,139.340 86.130,139.340 88.000 M48.154 93.600 C 48.154 96.350,48.218 97.475,48.296 96.100 C 48.374 94.725,48.374 92.475,48.296 91.100 C 48.218 89.725,48.154 90.850,48.154 93.600 M350.914 93.400 C 350.917 94.500,350.995 94.903,351.087 94.295 C 351.179 93.686,351.177 92.786,351.082 92.295 C 350.987 91.803,350.911 92.300,350.914 93.400 M259.731 94.600 C 259.733 96.140,259.805 96.721,259.892 95.891 C 259.979 95.061,259.977 93.801,259.889 93.091 C 259.800 92.381,259.729 93.060,259.731 94.600 M260.131 103.000 C 260.133 104.540,260.205 105.121,260.292 104.291 C 260.379 103.461,260.377 102.201,260.289 101.491 C 260.200 100.781,260.129 101.460,260.131 103.000 M47.761 107.200 C 47.761 110.610,47.822 112.005,47.897 110.300 C 47.972 108.595,47.972 105.805,47.897 104.100 C 47.822 102.395,47.761 103.790,47.761 107.200 M351.340 107.600 C 351.340 109.470,351.409 110.235,351.493 109.300 C 351.577 108.365,351.577 106.835,351.493 105.900 C 351.409 104.965,351.340 105.730,351.340 107.600 M260.142 109.400 C 260.141 111.380,260.208 112.240,260.292 111.312 C 260.376 110.384,260.377 108.764,260.295 107.712 C 260.212 106.660,260.143 107.420,260.142 109.400 M138.973 109.899 L 139.000 113.000 153.400 113.007 L 167.800 113.015 153.517 112.903 L 139.233 112.790 139.090 109.794 L 138.946 106.797 138.973 109.899 M169.199 119.719 L 169.398 126.600 169.509 120.030 C 169.570 116.417,169.481 113.320,169.310 113.149 C 169.140 112.978,169.090 115.934,169.199 119.719 M238.326 113.100 C 242.355 113.165,248.835 113.165,252.726 113.099 C 256.617 113.034,253.320 112.980,245.400 112.981 C 237.480 112.981,234.297 113.034,238.326 113.100 M47.353 118.600 C 47.353 121.240,47.418 122.268,47.497 120.884 C 47.575 119.501,47.574 117.341,47.495 116.084 C 47.416 114.828,47.352 115.960,47.353 118.600 M351.753 118.600 C 351.753 121.240,351.818 122.268,351.897 120.884 C 351.975 119.501,351.974 117.341,351.895 116.084 C 351.816 114.828,351.752 115.960,351.753 118.600 M352.162 132.200 C 352.162 135.720,352.224 137.106,352.298 135.281 C 352.372 133.456,352.372 130.576,352.297 128.881 C 352.222 127.186,352.161 128.680,352.162 132.200 M46.937 132.600 C 46.939 134.360,47.009 135.030,47.093 134.089 C 47.178 133.149,47.177 131.709,47.091 130.889 C 47.005 130.070,46.936 130.840,46.937 132.600 M352.554 146.000 C 352.554 148.750,352.618 149.875,352.696 148.500 C 352.774 147.125,352.774 144.875,352.696 143.500 C 352.618 142.125,352.554 143.250,352.554 146.000 M46.540 148.000 C 46.540 149.870,46.609 150.635,46.693 149.700 C 46.777 148.765,46.777 147.235,46.693 146.300 C 46.609 145.365,46.540 146.130,46.540 148.000 M230.120 153.600 C 230.120 154.810,230.195 155.305,230.287 154.700 C 230.378 154.095,230.378 153.105,230.287 152.500 C 230.195 151.895,230.120 152.390,230.120 153.600 M230.144 160.000 C 230.144 162.090,230.212 162.945,230.294 161.900 C 230.376 160.855,230.376 159.145,230.294 158.100 C 230.212 157.055,230.144 157.910,230.144 160.000 M352.948 160.800 C 352.948 163.110,353.014 164.055,353.095 162.900 C 353.176 161.745,353.176 159.855,353.095 158.700 C 353.014 157.545,352.948 158.490,352.948 160.800 M168.942 160.600 C 168.941 162.580,169.008 163.440,169.092 162.512 C 169.176 161.584,169.177 159.964,169.095 158.912 C 169.012 157.860,168.943 158.620,168.942 160.600 M46.140 163.200 C 46.140 165.070,46.209 165.835,46.293 164.900 C 46.377 163.965,46.377 162.435,46.293 161.500 C 46.209 160.565,46.140 161.330,46.140 163.200 M184.700 164.300 C 192.895 164.360,206.305 164.360,214.500 164.300 C 222.695 164.239,215.990 164.190,199.600 164.190 C 183.210 164.190,176.505 164.239,184.700 164.300 M45.754 174.000 C 45.754 176.750,45.818 177.875,45.896 176.500 C 45.974 175.125,45.974 172.875,45.896 171.500 C 45.818 170.125,45.754 171.250,45.754 174.000 M353.337 175.400 C 353.339 177.160,353.409 177.830,353.493 176.889 C 353.578 175.949,353.577 174.509,353.491 173.689 C 353.405 172.870,353.336 173.640,353.337 175.400 M45.354 186.400 C 45.354 189.150,45.418 190.275,45.496 188.900 C 45.574 187.525,45.574 185.275,45.496 183.900 C 45.418 182.525,45.354 183.650,45.354 186.400 M353.740 188.000 C 353.740 189.870,353.809 190.635,353.893 189.700 C 353.977 188.765,353.977 187.235,353.893 186.300 C 353.809 185.365,353.740 186.130,353.740 188.000 M44.961 200.400 C 44.961 203.810,45.022 205.205,45.097 203.500 C 45.172 201.795,45.172 199.005,45.097 197.300 C 45.022 195.595,44.961 196.990,44.961 200.400 M354.161 200.400 C 354.161 203.810,354.222 205.205,354.297 203.500 C 354.372 201.795,354.372 199.005,354.297 197.300 C 354.222 195.595,354.161 196.990,354.161 200.400 M354.561 212.800 C 354.561 216.210,354.622 217.605,354.697 215.900 C 354.772 214.195,354.772 211.405,354.697 209.700 C 354.622 207.995,354.561 209.390,354.561 212.800 M44.553 214.200 C 44.553 216.840,44.618 217.868,44.697 216.484 C 44.775 215.101,44.774 212.941,44.695 211.684 C 44.616 210.428,44.552 211.560,44.553 214.200 M261.195 219.718 L 261.391 222.600 261.516 220.041 C 261.585 218.633,261.497 217.336,261.321 217.159 C 261.144 216.981,261.088 218.133,261.195 219.718 M168.571 226.000 C 168.571 230.950,168.628 232.975,168.699 230.500 C 168.769 228.025,168.769 223.975,168.699 221.500 C 168.628 219.025,168.571 221.050,168.571 226.000 M230.570 225.600 C 230.570 230.330,230.628 232.265,230.698 229.900 C 230.769 227.535,230.769 223.665,230.698 221.300 C 230.628 218.935,230.570 220.870,230.570 225.600 M354.954 226.800 C 354.954 229.550,355.018 230.675,355.096 229.300 C 355.174 227.925,355.174 225.675,355.096 224.300 C 355.018 222.925,354.954 224.050,354.954 226.800 M261.655 236.633 C 261.686 244.315,261.838 256.450,261.994 263.600 C 262.166 271.517,262.203 266.122,262.087 249.800 C 261.982 235.060,261.830 222.925,261.748 222.833 C 261.667 222.742,261.625 228.952,261.655 236.633 M44.153 229.800 C 44.153 232.440,44.218 233.468,44.297 232.084 C 44.375 230.701,44.374 228.541,44.295 227.284 C 44.216 226.028,44.152 227.160,44.153 229.800 M137.369 238.400 C 137.369 242.910,137.427 244.755,137.498 242.500 C 137.570 240.245,137.570 236.555,137.498 234.300 C 137.427 232.045,137.369 233.890,137.369 238.400 M230.924 236.600 C 230.926 237.920,231.001 238.412,231.090 237.693 C 231.179 236.974,231.177 235.894,231.086 235.293 C 230.995 234.692,230.922 235.280,230.924 236.600 M355.353 241.800 C 355.353 244.440,355.418 245.468,355.497 244.084 C 355.575 242.701,355.574 240.541,355.495 239.284 C 355.416 238.028,355.352 239.160,355.353 241.800 M43.679 245.200 C 43.623 247.950,43.420 253.530,43.230 257.600 C 42.763 267.570,42.259 290.249,42.510 290.000 C 42.621 289.890,42.843 284.310,43.004 277.600 C 43.164 270.890,43.409 262.070,43.548 258.000 L 43.800 250.600 59.274 250.495 L 74.748 250.391 74.628 260.495 C 74.562 266.053,74.581 269.025,74.669 267.100 C 74.827 263.655,75.600 262.078,75.600 265.200 L 75.600 266.800 78.153 266.800 C 81.250 266.800,81.245 266.808,81.615 260.800 C 81.842 257.119,81.873 257.465,81.867 263.600 L 81.860 270.600 109.131 270.800 C 124.130 270.910,136.581 270.940,136.801 270.867 C 137.042 270.786,137.168 268.889,137.120 266.067 L 137.040 261.400 136.820 266.000 C 136.699 268.530,136.465 270.555,136.300 270.500 C 136.135 270.445,123.895 270.400,109.100 270.400 L 82.200 270.401 82.499 257.500 C 82.664 250.405,82.715 244.375,82.612 244.100 C 82.466 243.710,78.221 243.600,63.236 243.600 L 44.046 243.600 43.914 241.900 C 43.842 240.965,43.736 242.450,43.679 245.200 M168.082 255.600 C 167.975 262.383,168.700 297.974,169.130 307.120 L 169.400 312.839 180.600 312.920 L 191.800 313.000 191.800 314.800 L 191.800 316.600 180.511 316.706 L 169.223 316.812 169.424 330.506 C 169.534 338.038,169.727 346.225,169.852 348.700 L 170.079 353.200 199.600 353.200 L 229.121 353.200 229.360 348.700 C 229.491 346.225,229.779 333.040,230.000 319.400 C 230.221 305.760,230.594 286.950,230.829 277.600 C 231.063 268.250,231.192 258.080,231.115 255.000 C 231.029 251.536,230.942 253.482,230.888 260.102 L 230.800 270.805 199.700 270.702 L 168.600 270.600 168.390 260.000 C 168.223 251.559,168.160 250.663,168.082 255.600 M355.742 255.800 C 355.741 257.780,355.808 258.640,355.892 257.712 C 355.976 256.784,355.977 255.164,355.895 254.112 C 355.812 253.060,355.743 253.820,355.742 255.800 M75.483 262.495 C 75.387 262.993,75.305 262.680,75.301 261.800 C 75.296 260.920,75.375 260.513,75.475 260.895 C 75.575 261.278,75.579 261.998,75.483 262.495 M356.070 269.876 C 356.031 272.558,356.135 274.837,356.300 274.940 C 356.465 275.042,356.552 273.568,356.493 271.663 C 356.304 265.554,356.142 264.868,356.070 269.876 M74.160 277.000 C 74.161 280.300,74.222 281.597,74.298 279.882 C 74.373 278.167,74.372 275.467,74.297 273.882 C 74.221 272.297,74.159 273.700,74.160 277.000 M81.779 277.712 C 81.670 277.993,81.635 281.728,81.700 286.012 L 81.818 293.800 81.909 285.703 L 82.000 277.606 109.500 277.500 L 137.000 277.394 109.487 277.297 C 87.438 277.219,81.936 277.302,81.779 277.712 M356.564 289.000 C 356.709 295.380,356.907 302.670,357.004 305.200 C 357.101 307.730,357.293 313.265,357.431 317.500 L 357.681 325.200 310.441 325.200 L 263.200 325.200 263.136 320.100 C 263.100 317.295,262.935 320.400,262.767 327.000 C 262.600 333.600,262.091 347.550,261.635 358.000 C 261.179 368.450,260.708 379.520,260.588 382.600 C 260.467 385.680,260.198 392.063,259.989 396.785 C 259.781 401.507,259.753 405.513,259.927 405.687 C 260.101 405.861,280.291 405.958,304.793 405.902 L 349.342 405.800 349.630 404.724 C 349.789 404.132,349.982 402.602,350.059 401.324 L 350.200 399.000 327.677 398.897 L 305.154 398.793 305.277 397.097 L 305.400 395.400 328.100 395.297 C 345.852 395.216,350.802 395.085,350.808 394.697 C 350.812 394.424,351.075 391.680,351.392 388.600 C 351.709 385.520,352.701 375.890,353.597 367.200 C 354.492 358.510,355.491 348.700,355.817 345.400 C 356.142 342.100,356.776 336.113,357.225 332.096 C 357.988 325.260,358.014 323.862,357.621 310.296 C 357.390 302.323,357.088 291.750,356.950 286.800 C 356.812 281.850,356.610 277.710,356.500 277.600 C 356.391 277.490,356.420 282.620,356.564 289.000 M262.577 296.000 C 262.577 302.490,262.632 305.145,262.699 301.900 C 262.766 298.655,262.766 293.345,262.699 290.100 C 262.632 286.855,262.577 289.510,262.577 296.000 M136.319 291.601 C 136.254 295.121,136.335 298.001,136.500 298.001 C 136.665 298.000,136.800 295.120,136.800 291.600 C 136.800 283.319,136.473 283.319,136.319 291.601 M73.456 295.427 C 73.307 300.391,73.289 304.621,73.416 304.827 C 73.556 305.053,86.047 305.200,105.081 305.200 L 136.514 305.200 136.257 307.659 C 136.116 309.011,136.000 313.509,136.000 317.655 L 136.000 325.193 88.816 325.297 L 41.633 325.400 41.469 323.200 C 41.380 321.990,41.367 322.620,41.441 324.600 C 41.516 326.580,42.215 334.320,42.995 341.800 C 45.164 362.609,46.216 372.890,47.783 388.600 C 48.573 396.520,49.350 403.630,49.510 404.400 L 49.800 405.800 94.600 405.800 L 139.400 405.800 139.397 403.600 C 139.393 400.417,138.820 385.055,138.391 376.634 C 138.189 372.655,138.018 368.815,138.011 368.100 L 138.000 366.800 130.400 366.800 L 122.800 366.800 122.800 368.600 L 122.800 370.400 107.400 370.400 L 92.000 370.400 92.000 369.000 C 92.000 368.230,91.955 367.465,91.900 367.300 C 91.845 367.135,93.510 366.910,95.600 366.800 L 99.400 366.600 99.273 364.900 L 99.146 363.200 118.433 363.200 L 137.720 363.200 137.448 354.700 C 137.299 350.025,136.984 342.060,136.748 337.000 C 136.495 331.551,136.434 323.112,136.600 316.302 L 136.880 304.805 105.340 304.702 L 73.800 304.600 73.952 295.500 C 74.035 290.495,74.019 286.400,73.915 286.400 C 73.812 286.400,73.605 290.462,73.456 295.427 M42.161 296.400 C 42.161 299.810,42.222 301.205,42.297 299.500 C 42.372 297.795,42.372 295.005,42.297 293.300 C 42.222 291.595,42.161 292.990,42.161 296.400 M95.729 297.900 C 103.170 297.961,115.230 297.961,122.529 297.900 C 129.828 297.839,123.740 297.789,109.000 297.789 C 94.260 297.789,88.288 297.839,95.729 297.900 M41.762 311.800 C 41.762 315.320,41.824 316.706,41.898 314.881 C 41.972 313.056,41.972 310.176,41.897 308.481 C 41.822 306.786,41.761 308.280,41.762 311.800 " stroke="none" fill="#0c440c" fill-rule="evenodd"></path><path id="path3" d="M48.267 107.067 C 48.120 107.213,48.000 108.608,48.000 110.167 L 48.000 113.000 93.400 113.000 L 138.800 113.000 138.800 109.900 L 138.800 106.800 93.667 106.800 C 68.843 106.800,48.413 106.920,48.267 107.067 M260.400 109.800 L 260.400 112.800 275.376 112.800 C 283.613 112.800,290.436 112.935,290.538 113.100 C 290.640 113.265,290.876 122.130,291.062 132.800 C 291.248 143.470,291.451 150.265,291.514 147.900 C 291.577 145.479,291.796 143.600,292.014 143.600 C 292.226 143.600,292.400 143.960,292.400 144.400 C 292.400 145.272,295.008 145.571,298.200 145.064 C 298.422 145.028,298.711 146.426,298.849 148.200 C 299.003 150.177,299.043 149.260,298.954 145.800 C 298.875 142.720,298.713 134.710,298.595 128.000 C 298.476 121.290,298.276 113.775,298.150 111.300 L 297.921 106.800 279.161 106.800 L 260.400 106.800 260.400 109.800 M298.276 143.900 C 298.175 144.285,298.093 143.970,298.093 143.200 C 298.093 142.430,298.175 142.115,298.276 142.500 C 298.376 142.885,298.376 143.515,298.276 143.900 " stroke="none" fill="#04c704" fill-rule="evenodd"></path><path id="path4" d="M33.451 42.300 C 33.334 42.905,33.117 49.430,32.969 56.800 C 32.822 64.170,32.569 70.290,32.409 70.400 C 32.249 70.510,32.002 75.820,31.860 82.200 C 31.229 110.630,30.765 125.762,30.381 130.400 C 29.985 135.185,29.108 163.315,28.548 189.200 C 28.403 195.910,28.163 201.490,28.014 201.600 C 27.865 201.710,27.274 217.460,26.700 236.600 C 26.126 255.740,25.550 273.380,25.421 275.800 C 24.087 300.788,23.798 333.325,24.830 342.400 C 25.268 346.250,26.125 353.990,26.735 359.600 C 27.345 365.210,27.955 370.070,28.090 370.400 C 28.226 370.730,28.725 375.288,29.200 380.529 C 29.674 385.771,30.215 390.541,30.401 391.129 C 30.587 391.718,31.034 395.620,31.395 399.800 C 31.755 403.980,32.203 407.760,32.390 408.200 C 32.577 408.640,33.029 412.510,33.395 416.800 C 33.760 421.090,34.148 424.915,34.257 425.300 C 34.443 425.963,37.671 426.000,94.827 426.000 L 155.200 426.000 155.200 412.665 C 155.200 405.331,155.319 393.631,155.465 386.665 L 155.729 374.000 199.665 374.000 L 243.600 374.000 243.600 399.429 C 243.600 420.933,243.688 424.945,244.171 425.429 C 244.662 425.919,253.280 426.000,304.771 426.000 L 364.800 426.000 364.800 424.480 C 364.800 423.644,364.961 422.789,365.158 422.580 C 365.355 422.371,365.907 417.700,366.386 412.200 C 366.865 406.700,367.415 401.840,367.610 401.400 C 367.804 400.960,368.248 397.180,368.598 393.000 C 368.948 388.820,369.396 384.860,369.595 384.200 C 369.793 383.540,370.342 378.770,370.814 373.600 C 371.286 368.430,371.826 363.840,372.013 363.400 C 372.200 362.960,372.736 358.190,373.205 352.800 C 373.673 347.410,374.269 342.566,374.528 342.036 C 375.121 340.825,375.093 296.836,374.499 296.448 C 374.287 296.309,374.009 291.454,373.867 285.400 C 372.991 248.107,372.282 224.894,371.999 224.200 C 371.819 223.760,371.371 211.340,371.002 196.600 C 370.634 181.860,370.161 165.930,369.952 161.200 C 369.742 156.470,369.162 139.820,368.663 124.200 C 368.163 108.580,367.648 95.530,367.519 95.200 C 367.389 94.870,367.077 85.690,366.824 74.800 C 366.572 63.910,366.255 51.895,366.120 48.100 L 365.874 41.200 305.137 41.200 L 244.400 41.200 244.400 47.176 C 244.400 50.463,244.241 53.251,244.047 53.371 C 243.854 53.490,243.561 62.141,243.398 72.594 L 243.101 91.600 228.808 91.600 L 214.514 91.600 214.259 109.500 C 214.119 119.345,213.888 130.865,213.746 135.100 L 213.488 142.800 199.344 142.800 L 185.200 142.800 185.200 123.864 C 185.200 113.449,185.082 101.929,184.937 98.264 L 184.674 91.600 170.537 91.600 L 156.400 91.600 156.400 89.200 C 156.400 87.880,156.265 86.800,156.100 86.801 C 155.935 86.801,155.800 86.126,155.800 85.301 C 155.800 78.901,155.135 47.485,154.941 44.700 L 154.697 41.200 94.180 41.200 L 33.664 41.200 33.451 42.300 M139.424 87.595 L 139.134 112.790 154.267 112.895 L 169.400 113.000 169.241 138.600 L 169.082 164.200 199.441 164.101 C 216.138 164.047,229.890 164.002,230.000 164.001 C 230.110 164.001,230.110 152.660,230.000 138.799 C 229.890 124.938,229.860 113.418,229.933 113.199 C 230.019 112.943,235.456 112.800,245.079 112.800 L 260.092 112.800 259.851 97.300 C 259.718 88.775,259.562 77.480,259.505 72.200 L 259.400 62.600 304.712 62.498 C 340.766 62.417,350.055 62.499,350.178 62.898 C 350.263 63.174,350.535 71.860,350.783 82.200 C 351.031 92.540,351.403 104.780,351.611 109.400 C 351.818 114.020,352.350 131.840,352.792 149.000 C 353.234 166.160,353.777 184.430,354.000 189.600 C 354.222 194.770,354.757 212.770,355.190 229.600 C 355.622 246.430,356.070 262.450,356.185 265.200 C 356.300 267.950,356.489 273.170,356.604 276.800 C 356.719 280.430,356.901 285.920,357.010 289.000 C 357.922 314.951,358.025 325.092,357.429 330.200 C 357.095 333.060,356.463 339.000,356.023 343.400 C 355.584 347.800,354.492 358.510,353.597 367.200 C 352.701 375.890,351.709 385.520,351.392 388.600 C 351.075 391.680,350.812 394.424,350.808 394.697 C 350.802 395.085,345.852 395.216,328.100 395.297 L 305.400 395.400 305.277 397.097 L 305.154 398.793 327.677 398.897 L 350.200 399.000 350.059 401.324 C 349.982 402.602,349.789 404.132,349.630 404.724 L 349.342 405.800 304.793 405.902 C 280.291 405.958,260.101 405.861,259.927 405.687 C 259.753 405.513,259.777 401.597,259.981 396.985 C 260.185 392.373,260.457 385.900,260.585 382.600 C 260.714 379.300,261.168 368.500,261.594 358.600 C 262.833 329.852,262.907 324.205,262.437 294.000 C 262.193 278.270,261.899 256.940,261.785 246.600 C 261.670 236.260,261.473 225.415,261.347 222.500 L 261.118 217.200 245.923 217.200 L 230.728 217.200 230.966 240.976 C 231.096 254.053,231.028 271.108,230.815 278.876 C 230.601 286.644,230.240 304.520,230.013 318.600 C 229.785 332.680,229.492 346.225,229.360 348.700 L 229.121 353.200 199.600 353.200 L 170.079 353.200 169.852 348.700 C 169.727 346.225,169.534 338.038,169.424 330.506 L 169.223 316.812 180.511 316.706 L 191.800 316.600 191.800 314.800 L 191.800 313.000 180.600 312.920 L 169.400 312.839 169.127 306.920 C 168.434 291.929,168.035 260.664,168.271 239.895 L 168.528 217.190 153.164 217.295 L 137.800 217.400 137.459 244.000 C 137.271 258.630,136.974 270.690,136.797 270.800 C 136.621 270.910,124.188 270.910,109.168 270.800 L 81.860 270.600 81.867 263.600 C 81.873 257.465,81.842 257.119,81.615 260.800 C 81.245 266.808,81.250 266.800,78.153 266.800 L 75.600 266.800 75.600 265.200 C 75.600 264.320,75.441 263.600,75.246 263.600 C 75.051 263.600,74.768 266.795,74.616 270.700 C 74.248 280.131,73.702 300.537,73.757 302.800 L 73.800 304.600 105.340 304.702 L 136.880 304.805 136.600 316.302 C 136.434 323.112,136.495 331.551,136.748 337.000 C 136.984 342.060,137.299 350.025,137.448 354.700 L 137.720 363.200 118.433 363.200 L 99.146 363.200 99.273 364.900 L 99.400 366.600 95.600 366.800 C 93.510 366.910,91.845 367.135,91.900 367.300 C 91.955 367.465,92.000 368.230,92.000 369.000 L 92.000 370.400 107.400 370.400 L 122.800 370.400 122.800 368.600 L 122.800 366.800 130.400 366.800 L 138.000 366.800 138.011 368.100 C 138.018 368.815,138.189 372.655,138.391 376.634 C 138.820 385.055,139.393 400.417,139.397 403.600 L 139.400 405.800 94.822 405.902 C 68.235 405.962,50.096 405.856,49.877 405.637 C 49.676 405.436,49.179 401.970,48.773 397.936 C 48.368 393.901,47.302 383.490,46.406 374.800 C 45.509 366.110,44.421 355.490,43.987 351.200 C 43.553 346.910,42.764 339.247,42.233 334.172 L 41.268 324.943 41.815 304.972 C 42.116 293.987,42.481 280.590,42.625 275.200 C 42.770 269.810,43.034 261.980,43.212 257.800 C 43.389 253.620,43.627 246.330,43.740 241.600 C 44.198 222.419,45.246 185.574,45.606 176.000 C 45.817 170.390,46.351 152.480,46.793 136.200 C 47.236 119.920,47.782 101.650,48.006 95.600 C 48.231 89.550,48.508 80.550,48.624 75.600 C 48.739 70.650,48.928 65.655,49.045 64.500 L 49.258 62.400 94.486 62.400 L 139.715 62.400 139.424 87.595 M75.301 261.800 C 75.305 262.680,75.387 262.993,75.483 262.495 C 75.579 261.998,75.575 261.278,75.475 260.895 C 75.375 260.513,75.296 260.920,75.301 261.800 M136.829 277.600 C 136.844 277.820,136.857 279.440,136.857 281.200 C 136.857 282.960,136.844 287.460,136.829 291.200 L 136.800 298.000 109.200 298.000 L 81.600 298.000 81.600 287.867 C 81.600 282.293,81.720 277.613,81.867 277.467 C 82.317 277.017,136.796 277.149,136.829 277.600 " stroke="none" fill="#040404" fill-rule="evenodd"></path></g></svg>